<svg xmlns="http://www.w3.org/2000/svg" xmlns:xlink="http://www.w3.org/1999/xlink" viewBox="0 0 744.16 156.96"><defs><style>.cls-1{fill:url(#linear-gradient);}.cls-2{fill:url(#linear-gradient-2);}.cls-3{fill:url(#linear-gradient-3);}.cls-4{fill:url(#linear-gradient-4);}.cls-5{fill:url(#linear-gradient-5);}.cls-6{fill:url(#linear-gradient-6);}.cls-7{fill:url(#linear-gradient-7);}.cls-8{fill:url(#linear-gradient-8);}.cls-9{fill:url(#linear-gradient-9);}.cls-10{fill:url(#linear-gradient-10);}</style><linearGradient id="linear-gradient" x1="45.06" y1="118.92" x2="45.06" gradientUnits="userSpaceOnUse"><stop offset="0.01" stop-color="#ccc"/><stop offset="1" stop-color="#f2f2f2"/></linearGradient><linearGradient id="linear-gradient-2" x1="136.48" y1="117.2" x2="136.48" y2="28.1" xlink:href="#linear-gradient"/><linearGradient id="linear-gradient-3" x1="214.02" y1="118.23" x2="214.02" y2="27.92" xlink:href="#linear-gradient"/><linearGradient id="linear-gradient-4" x1="381.59" y1="117.72" x2="381.59" y2="26.56" xlink:href="#linear-gradient"/><linearGradient id="linear-gradient-5" x1="455.53" y1="117.89" x2="455.53" y2="27.07" xlink:href="#linear-gradient"/><linearGradient id="linear-gradient-6" x1="537.6" y1="117.2" x2="537.6" y2="28.1" xlink:href="#linear-gradient"/><linearGradient id="linear-gradient-7" x1="623.7" y1="156.96" x2="623.7" y2="27.07" xlink:href="#linear-gradient"/><linearGradient id="linear-gradient-8" x1="706.04" y1="117.55" x2="706.04" y2="27.07" xlink:href="#linear-gradient"/><linearGradient id="linear-gradient-9" x1="291.31" y1="134" x2="291.31" y2="4.93" xlink:href="#linear-gradient"/><linearGradient id="linear-gradient-10" x1="293.35" y1="96.72" x2="293.35" y2="39.16" xlink:href="#linear-gradient"/></defs><g id="Layer_2" data-name="Layer 2"><g id="Layer_1-2" data-name="Layer 1"><path class="cls-1" d="M0,108Q.35,83.11.69,58.86T1.2,10.28A9.92,9.92,0,0,1,4.2,3a9.89,9.89,0,0,1,7.28-3,10.53,10.53,0,0,1,7.28,3.17,9.92,9.92,0,0,1,3,7.28q-.17,19.2-.34,33.76t-.34,24.84q21.41-.51,48.15-.51V59.8q.17-11.47.25-23.65t.09-25.53a9.92,9.92,0,0,1,3-7.28,10.33,10.33,0,0,1,14.56,0,9.92,9.92,0,0,1,3,7.28Q90.13,24,90,36.24T89.79,60v1.2q-.18,11-.17,22.79v24.68a10.29,10.29,0,1,1-20.57,0V89.1q-26.73,0-48.15.52c0,.8,0,2.08-.08,3.85s-.12,3.6-.17,5.48-.09,3.72-.09,5.49v4a10.21,10.21,0,0,1-3.17,7.2,10.08,10.08,0,0,1-7.28,2.91,10.21,10.21,0,0,1-7.2-3.17A9.65,9.65,0,0,1,0,108.46Z"/><path class="cls-2" d="M97.15,65.63a55.6,55.6,0,0,1,5.06-14.74A44.73,44.73,0,0,1,111,39a38.64,38.64,0,0,1,27.5-10.88h4.63a5.94,5.94,0,0,1,1.71.34Q163,32,171.52,49.35a44.2,44.2,0,0,1,4.37,12.85,66.35,66.35,0,0,1,.77,8.57,52,52,0,0,1-1.2,10.79,52.69,52.69,0,0,1-5,13.88,44.57,44.57,0,0,1-8.48,11.4,36.77,36.77,0,0,1-26.13,10.36A43.7,43.7,0,0,1,114.2,112q-9.33-5.24-14.3-17a50.29,50.29,0,0,1-3.6-19A64.67,64.67,0,0,1,97.15,65.63Zm21.77,21.42q2.39,5.82,6.51,7.62a24.69,24.69,0,0,0,9.94,1.8,19.28,19.28,0,0,0,11.13-3.26q7-5.47,8.74-15.59a33.76,33.76,0,0,0,.69-6.68A28.34,28.34,0,0,0,153,58.43a16.88,16.88,0,0,0-11-9.6h-.69a8,8,0,0,0-1.45-.17h-1.46a18.49,18.49,0,0,0-8,1.72,20.58,20.58,0,0,0-6.26,4.54,24,24,0,0,0-4.37,6.59,31.86,31.86,0,0,0-2.4,7.89,40.91,40.91,0,0,0-.51,6.34A30,30,0,0,0,118.92,87.05Z"/><path class="cls-3" d="M242.12,35.13q-9.78-7.22-19.71-7.21a26.62,26.62,0,0,0-10.27,2A48.34,48.34,0,0,0,202.88,35a9.7,9.7,0,0,0-9.42-6.51,10.12,10.12,0,0,0-7.3,2.91A10.33,10.33,0,0,0,183,38.56c-.23,4.9-.34,10-.34,15.15s-.06,10.71-.18,16.54V85.67c-.12,3.66-.17,7.32-.17,11v11.64a9.42,9.42,0,0,0,2.92,6.86,10.38,10.38,0,0,0,7.2,3.08,10,10,0,0,0,7.28-3,10.58,10.58,0,0,0,3.17-7.28V96.82c0-3.66.05-7.32.17-11V69.4l.17-2.41V66a13.67,13.67,0,0,0,.86-1.28,4.58,4.58,0,0,1,.68-.95c.91-1.38,2-2.93,3.26-4.71a42.89,42.89,0,0,1,4.12-5,23.35,23.35,0,0,1,4.78-3.85,10.51,10.51,0,0,1,5.49-1.54,10.76,10.76,0,0,1,7,2.74,9.69,9.69,0,0,0,6.33,2.23,10.12,10.12,0,0,0,3.5-.59,56.35,56.35,0,0,1,6.46-13.31C245.43,38.25,244.23,36.71,242.12,35.13Z"/><path class="cls-4" d="M358.46,82.08a8.74,8.74,0,0,1,2.05-.17A10.21,10.21,0,0,1,367,84.22a9.56,9.56,0,0,1,3.6,5.91,7.37,7.37,0,0,0,4.12,5.48A10.39,10.39,0,0,0,380.56,97a26,26,0,0,0,5.66-.68,7.32,7.32,0,0,0,4.62-2.91,8.8,8.8,0,0,0,1.2-2.23,5.4,5.4,0,0,0,0-3.77,7.37,7.37,0,0,0-3.34-4.11,42.11,42.11,0,0,0-8.82-3.77l-8.23-2.75c-1.37-.45-2.46-.85-3.25-1.19a37.53,37.53,0,0,1-8.91-5.49,21.84,21.84,0,0,1-7.37-16.62,31.63,31.63,0,0,1,1-7.71,20.65,20.65,0,0,1,4.19-8.22,28.71,28.71,0,0,1,7-6.09,31.34,31.34,0,0,1,8.74-3.68,37,37,0,0,1,9.17-1.2q12.84,0,24.33,9.77c2.17,1.82,3.31,3.54,3.42,5.14s.18,2.51.18,2.74a10.21,10.21,0,0,1-2.4,6.68,9.93,9.93,0,0,1-7.89,3.6,10.21,10.21,0,0,1-6.68-2.4q-5.65-5-11.14-5.14h-.68q-7,0-8.23,3.77a4.53,4.53,0,0,0-.34,1.71,3.49,3.49,0,0,0,1.46,2.74,11.34,11.34,0,0,0,3.25,1.89c1.2.46,3.6,1.28,7.2,2.48s6.82,2.43,9.68,3.69a39.34,39.34,0,0,1,7.8,4.54,29.72,29.72,0,0,1,6.17,6.34,22.28,22.28,0,0,1,3.68,8.65,29.74,29.74,0,0,1,.86,6.86,25.92,25.92,0,0,1-6.51,17.13,27.15,27.15,0,0,1-11.74,8.31,40.65,40.65,0,0,1-14.31,2.66,32.67,32.67,0,0,1-10.28-1.63,28.91,28.91,0,0,1-8.91-4.71,30.25,30.25,0,0,1-6.77-7.46,29.8,29.8,0,0,1-4-9.68,16.45,16.45,0,0,1-.17-2.23,11,11,0,0,1,2-6.08A9.24,9.24,0,0,1,358.46,82.08Z"/><path class="cls-5" d="M418.26,72.14A50.57,50.57,0,0,1,422.46,56a55.13,55.13,0,0,1,9.16-14.48,47,47,0,0,1,13.2-10.45,34.06,34.06,0,0,1,16.28-4h1.79a9.48,9.48,0,0,1,1.8.17q13.37,1,25,12.17A10.29,10.29,0,0,1,493,46.78,9.77,9.77,0,0,1,490.05,54a10.14,10.14,0,0,1-14.56.35,33.29,33.29,0,0,0-6.43-4.8,15.19,15.19,0,0,0-7.62-1.88,16.17,16.17,0,0,0-8.66,2.48,26.58,26.58,0,0,0-7,6.34,33.58,33.58,0,0,0-4.8,8.48,31.51,31.51,0,0,0-2.14,8.74v2.4a32.67,32.67,0,0,0,.86,7.37,19.6,19.6,0,0,0,3.08,6.94,16.25,16.25,0,0,0,5.48,5,14.31,14.31,0,0,0,7,1.8h1.37q7.71-.52,17.31-7a10.6,10.6,0,0,1,5.82-1.88,10,10,0,0,1,8.57,4.62,9.73,9.73,0,0,1,1.71,5.48,24.68,24.68,0,0,1-.51,3.77q-.51,2.75-4.11,5a81.63,81.63,0,0,1-14.4,7.63,41.57,41.57,0,0,1-15.93,3.17,35.82,35.82,0,0,1-20.05-6.34A34.46,34.46,0,0,1,422.11,95.7a51.62,51.62,0,0,1-4-19.62C418.09,74.71,418.14,73.4,418.26,72.14Z"/><path class="cls-6" d="M498.28,65.63a55.58,55.58,0,0,1,5.05-14.74A45,45,0,0,1,512.07,39a38.69,38.69,0,0,1,27.5-10.88h4.63a5.88,5.88,0,0,1,1.71.34q18.17,3.6,26.73,20.91A44.2,44.2,0,0,1,577,62.2a64.59,64.59,0,0,1,.77,8.57,52,52,0,0,1-1.2,10.79,52.67,52.67,0,0,1-5,13.88,44.84,44.84,0,0,1-8.49,11.4A36.77,36.77,0,0,1,537,117.2,43.66,43.66,0,0,1,515.33,112q-9.35-5.24-14.31-17a50.29,50.29,0,0,1-3.6-19A63.56,63.56,0,0,1,498.28,65.63ZM520,87.05q2.4,5.82,6.51,7.62a24.69,24.69,0,0,0,9.94,1.8,19.32,19.32,0,0,0,11.14-3.26q7-5.47,8.74-15.59a34.5,34.5,0,0,0,.68-6.68,28.33,28.33,0,0,0-2.91-12.51,16.91,16.91,0,0,0-11-9.6h-.68a8.08,8.08,0,0,0-1.46-.17h-1.46a18.52,18.52,0,0,0-8.05,1.72,20.42,20.42,0,0,0-6.25,4.54,23.8,23.8,0,0,0-4.37,6.59,31,31,0,0,0-2.4,7.89,39.74,39.74,0,0,0-.52,6.34A30.23,30.23,0,0,0,520,87.05Z"/><path class="cls-7" d="M584.81,37.35a9.8,9.8,0,0,1,3.08-7.28,10.2,10.2,0,0,1,7.37-3,10.56,10.56,0,0,1,6.94,3,9.57,9.57,0,0,1,3.17,6.77A10.89,10.89,0,0,1,609,35q2.74-1,5.83-1.89c2.05-.57,4-1,5.91-1.46a22.35,22.35,0,0,1,4-.6,37.43,37.43,0,0,1,33.76,21.08q7.37,14.56,2.06,33.24a40.49,40.49,0,0,1-5.83,12.51,44.33,44.33,0,0,1-9.25,9.77A42.31,42.31,0,0,1,633.64,114a39.92,39.92,0,0,1-13.53,2.32,53,53,0,0,1-15.77-2.57l.86,32.72a9.37,9.37,0,0,1-2.83,7.29,10.62,10.62,0,0,1-7.28,3.17,10.07,10.07,0,0,1-7.28-2.92,10.21,10.21,0,0,1-3.17-7.19q.17-27.6.17-48.15V37.35ZM604.51,92a45.47,45.47,0,0,0,8.66,2.75,44.14,44.14,0,0,0,8.82.85,14.81,14.81,0,0,0,6.26-1.37,23.25,23.25,0,0,0,5.57-3.6,23.9,23.9,0,0,0,4.45-5.14,18.55,18.55,0,0,0,2.57-5.82q3.09-11-.86-18.51a17.55,17.55,0,0,0-9.76-8.74,18.6,18.6,0,0,0-5.14-.85,15.24,15.24,0,0,0-6.77,1.54,23.15,23.15,0,0,0-5.74,3.94,21.74,21.74,0,0,0-4.29,5.57,29.19,29.19,0,0,0-2.57,6.42,4.17,4.17,0,0,1-.85,1.89v4.8q0,2.91-.09,6.08c-.06,2.11-.11,4.11-.17,6S604.51,91.1,604.51,92Z"/><path class="cls-8" d="M668.43,67.34a63.87,63.87,0,0,1,5-18.33,33.89,33.89,0,0,1,9.93-12.86,45.2,45.2,0,0,1,11.83-6.68,37.39,37.39,0,0,1,13.36-2.4,33.84,33.84,0,0,1,10.11,1.55A36.19,36.19,0,0,1,727.89,33a30.25,30.25,0,0,1,7.36,6.86A25.86,25.86,0,0,1,739.71,49a27.52,27.52,0,0,1,.86,6.68,37,37,0,0,1-.86,6.85q-.86,4.29-5.14,9.94a26.88,26.88,0,0,1-6.43,6.08,33.29,33.29,0,0,1-8,4,46.32,46.32,0,0,1-8.73,2,66.91,66.91,0,0,1-8.91.6,59.26,59.26,0,0,1-6.43-.34q-3.17-.34-6.6-.86,1.89,7.55,5.83,10.28T706.81,97a21.28,21.28,0,0,0,10.79-2.65,20.46,20.46,0,0,0,7.54-7.63,10.54,10.54,0,0,1,4-3.68,10,10,0,0,1,10.28.26q3.58,2.4,4.19,5a19.91,19.91,0,0,1,.6,3.86,10.2,10.2,0,0,1-1.54,5.31,40.47,40.47,0,0,1-15.68,14.91,44.14,44.14,0,0,1-21,5.14,40.63,40.63,0,0,1-18.59-4.2,30.21,30.21,0,0,1-12.76-11.74q-6.69-11.13-6.69-25.7A73.28,73.28,0,0,1,668.43,67.34Zm21.76-4.28a53.27,53.27,0,0,0,7.62,1.11q3.69.26,7.63.26a29.08,29.08,0,0,0,6.6-.94,10.59,10.59,0,0,0,5.74-3.17A7.92,7.92,0,0,0,720,55.17a3.3,3.3,0,0,0-.17-1,5.06,5.06,0,0,0-1.8-3.09,12.66,12.66,0,0,0-3.42-2,16.94,16.94,0,0,0-4-1,29.59,29.59,0,0,0-3.6-.25,14.31,14.31,0,0,0-11,4.62A24.46,24.46,0,0,0,690.19,63.06Z"/><path class="cls-9" d="M343.42,120.19H322.05a57,57,0,0,0-5.93-101.45h27.3c8.89,0,8.91-13.81,0-13.81H239c-8.89,0-8.9,13.81,0,13.81h31.63a57.3,57.3,0,0,0-24.85,21A56.74,56.74,0,0,0,236.37,71a57,57,0,0,0,28.28,49.21H239c-8.89,0-8.9,13.81,0,13.81H343.42C352.31,134,352.33,120.19,343.42,120.19ZM249.31,71a44,44,0,1,1,44,44A44.09,44.09,0,0,1,249.31,71Z"/><polygon class="cls-10" points="293.35 39.16 302.7 58.11 323.61 61.15 308.48 75.9 312.05 96.72 293.35 86.89 274.64 96.72 278.21 75.9 263.08 61.15 284 58.11 293.35 39.16"/></g></g></svg>